<?xml version="1.0" encoding="UTF-8" standalone="no"?><!DOCTYPE svg PUBLIC "-//W3C//DTD SVG 1.1//EN" "http://www.w3.org/Graphics/SVG/1.1/DTD/svg11.dtd"><svg width="100%" height="100%" viewBox="0 0 59 27" version="1.1" xmlns="http://www.w3.org/2000/svg" xmlns:xlink="http://www.w3.org/1999/xlink" xml:space="preserve" xmlns:serif="http://www.serif.com/" style="fill-rule:evenodd;clip-rule:evenodd;stroke-linejoin:round;stroke-miterlimit:2;"><clipPath id="_clip1"><rect id="Mintello3-logo-white" x="0.757" y="0.627" width="57.312" height="25.921"/></clipPath><g clip-path="url(#_clip1)"><rect id="Logo" x="0.757" y="0.627" width="57.312" height="25.921" style="fill:none;"/><clipPath id="_clip2"><rect x="0.757" y="0.627" width="57.312" height="25.921"/></clipPath><g clip-path="url(#_clip2)"><path d="M32.888,6.496l-3.469,-1.373l-5.966,3.568l4.314,1.809l5.121,-4.004Z" style="fill:#fff;fill-rule:nonzero;"/><path d="M39.216,1.712l-2.986,-1.085l-4.374,2.811l3.106,1.26l4.254,-2.986Z" style="fill:#fff;fill-rule:nonzero;"/><path d="M36.514,9.19l-0,-1.273l1.302,0l0,-1.115l-0.407,-0.374l0,1.081l-1.335,0l-0,1.332l-1.062,0.008l0.349,0.341l1.153,0Z" style="fill:#fff;fill-rule:nonzero;"/><path d="M33.693,7.526l0.374,0.366l0.945,0l-0,-0.366l-1.319,-0Z" style="fill:#fff;fill-rule:nonzero;"/><path d="M36.091,5.104l-0,1.324l0.381,-0l0,-0.933l-0.381,-0.391Z" style="fill:#fff;fill-rule:nonzero;"/><path d="M57.931,13.534c-1.066,-4.453 -7.791,-8.737 -19.268,-7.751c0.012,0.024 0.022,0.049 0.034,0.075c7.508,0.126 15.501,2.181 16.838,6.608c0.95,3.144 -1.452,7.026 -6.203,10.39l0,2.954c5.812,-3.532 9.515,-8.451 8.599,-12.276Z" style="fill:#fff;fill-rule:nonzero;"/><path d="M5.63,16.832c0,-0.922 -0.601,-1.568 -1.694,-1.819l-1.117,-0.26c-0.554,-0.132 -0.812,-0.383 -0.812,-0.793c0,-0.504 0.448,-0.844 1.115,-0.844c0.524,0 0.924,0.188 1.156,0.542l0.028,0.042l0.851,-0.731l-0.028,-0.034c-0.441,-0.54 -1.139,-0.826 -2.017,-0.826c-1.29,-0 -2.227,0.818 -2.227,1.945c0,0.917 0.549,1.511 1.632,1.767l1.086,0.261c0.636,0.148 0.895,0.387 0.895,0.823c0,0.559 -0.459,0.906 -1.198,0.906c-0.509,0 -1.166,-0.161 -1.41,-0.93l-0.043,0.014l-1.005,0.23c-0,-0.001 -0,-0.002 -0,-0.003l-0.085,0.025c0.309,1.047 1.259,1.672 2.543,1.672c1.394,-0 2.33,-0.799 2.33,-1.987Z" style="fill:#fff;fill-rule:nonzero;"/><path d="M15.089,16.322c0.257,-0.148 0.48,-0.332 0.662,-0.547c0.182,-0.214 0.321,-0.463 0.412,-0.734c0.015,-0.031 0.025,-0.059 0.032,-0.085c0.006,-0.024 0.013,-0.051 0.02,-0.081l-0.004,-0.007l0.012,-0.016l0.031,-0.234c0.007,-0.037 0.012,-0.073 0.016,-0.11c0.003,-0.036 0.005,-0.077 0.005,-0.119l-0,-0.017c-0,-0.043 -0.002,-0.083 -0.005,-0.119c-0.004,-0.037 -0.009,-0.073 -0.015,-0.102l-0.001,-0.026c-0.006,-0.029 -0.011,-0.059 -0.014,-0.093c-0.003,-0.036 -0.008,-0.073 -0.015,-0.109l-0.003,-0.016l-0.006,-0.004c0,-0.003 -0,-0.007 -0.001,-0.014c-0.007,-0.052 -0.024,-0.112 -0.05,-0.175c-0.093,-0.269 -0.233,-0.514 -0.414,-0.728c-0.181,-0.214 -0.404,-0.399 -0.662,-0.547c-0.448,-0.256 -0.975,-0.385 -1.567,-0.385l-2.4,-0l0.457,0.893l0.012,0.023l2.058,0c0.208,0 0.4,0.04 0.573,0.12c0.174,0.079 0.328,0.186 0.456,0.317c0.129,0.13 0.232,0.282 0.304,0.449c0.073,0.167 0.109,0.345 0.109,0.525c0,0.18 -0.036,0.356 -0.109,0.523c-0.072,0.168 -0.175,0.32 -0.304,0.45c-0.128,0.13 -0.282,0.237 -0.456,0.317c-0.173,0.079 -0.365,0.12 -0.573,0.12l-2.498,-0l-0,2.829l1.133,-0l0,-1.913l1.238,0c0.297,0 0.58,-0.034 0.842,-0.103c0.263,-0.067 0.506,-0.162 0.725,-0.282Z" style="fill:#fff;fill-rule:nonzero;"/><path d="M22.721,14.378l1.215,2.805l-1.175,-0l0.435,0.917l1.14,0l0.215,0.511l1.163,0l-2.952,-6.523l-0.041,-0.089l-2.963,6.55l-0.029,0.062l1.164,0l1.828,-4.233Z" style="fill:#fff;fill-rule:nonzero;"/><path d="M45.613,13.071l0.471,-0.995l-4.338,-0l0,6.522l3.867,-0l0.47,-1.014l-3.212,-0l-0,-1.848l2.079,-0l0.473,-0.97l-2.552,0l-0,-1.695l2.742,0Z" style="fill:#fff;fill-rule:nonzero;"/><path d="M36.676,17.286l0.05,-0.061l-1.329,-0.182l-0.015,0.013c-0.139,0.117 -0.297,0.221 -0.467,0.308c-0.341,0.175 -0.72,0.264 -1.129,0.264c-0.331,0 -0.646,-0.061 -0.937,-0.181c-0.29,-0.121 -0.547,-0.287 -0.763,-0.494c-0.217,-0.207 -0.391,-0.451 -0.519,-0.727c-0.127,-0.274 -0.191,-0.574 -0.191,-0.889c-0,-0.316 0.064,-0.615 0.191,-0.89c0.128,-0.275 0.302,-0.52 0.519,-0.727c0.216,-0.206 0.473,-0.372 0.763,-0.493c0.291,-0.12 0.606,-0.181 0.937,-0.181c0.409,-0 0.788,0.088 1.129,0.263c0.195,0.1 0.371,0.221 0.526,0.359l0.016,0.015l1.266,-0.238l-0.047,-0.057c-0.328,-0.403 -0.747,-0.727 -1.243,-0.964c-0.495,-0.237 -1.05,-0.357 -1.647,-0.357c-0.493,0 -0.963,0.087 -1.395,0.258c-0.434,0.172 -0.817,0.408 -1.138,0.7c-0.322,0.295 -0.581,0.643 -0.768,1.037c-0.188,0.395 -0.283,0.824 -0.283,1.275c0,0.451 0.095,0.879 0.283,1.275c0.187,0.393 0.446,0.742 0.768,1.036c0.322,0.293 0.705,0.529 1.138,0.7c0.434,0.172 0.904,0.259 1.395,0.259c0.597,-0 1.152,-0.12 1.647,-0.357c0.496,-0.237 0.915,-0.562 1.243,-0.964Z" style="fill:#fff;fill-rule:nonzero;"/><rect x="0.873" y="22.448" width="0.438" height="4.031" style="fill:#fff;fill-rule:nonzero;"/><path d="M6.631,26.092l-0.053,0l-2.947,-3.644l-0.656,-0l0,4.03l0.42,0l-0,-3.662l0.052,0l2.948,3.662l0.656,0l0,-4.03l-0.42,-0l-0,3.644Z" style="fill:#fff;fill-rule:nonzero;"/><path d="M12.369,26.092l-0.052,0l-2.947,-3.644l-0.657,-0l0,4.03l0.42,0l0,-3.662l0.053,0l2.947,3.662l0.657,0l-0,-4.03l-0.421,-0l0,3.644Z" style="fill:#fff;fill-rule:nonzero;"/><path d="M17.962,25.015c0,0.893 -0.392,1.141 -1.63,1.141c-1.237,-0 -1.657,-0.248 -1.657,-1.141l0,-1.105c0,-0.904 0.42,-1.146 1.657,-1.146c1.238,0 1.63,0.242 1.63,1.146l0,1.105Zm-1.63,-2.637c-1.502,0 -2.101,0.335 -2.101,1.532l-0,1.105c-0,1.198 0.599,1.532 2.101,1.532c1.498,0 2.079,-0.334 2.079,-1.532l0,-1.105c0,-1.197 -0.581,-1.532 -2.079,-1.532Z" style="fill:#fff;fill-rule:nonzero;"/><path d="M21.659,26.092l-0.178,0l-1.705,-3.644l-0.501,-0l1.946,4.03l0.697,0l1.94,-4.03l-0.501,-0l-1.698,3.644Z" style="fill:#fff;fill-rule:nonzero;"/><path d="M25.315,25.085l1.065,-2.251l0.196,-0l1.064,2.251l-2.325,-0Zm0.817,-2.637l-1.962,4.03l0.483,0l0.477,-1.014l2.695,0l0.477,1.014l0.49,0l-1.969,-4.03l-0.691,-0Z" style="fill:#fff;fill-rule:nonzero;"/><path d="M29.244,22.828l1.675,-0l0,3.65l0.438,0l-0,-3.65l1.669,-0l-0,-0.38l-3.782,-0l-0,0.38Z" style="fill:#fff;fill-rule:nonzero;"/><rect x="34.29" y="22.448" width="0.438" height="4.031" style="fill:#fff;fill-rule:nonzero;"/><path d="M40.066,25.015c-0,0.893 -0.392,1.141 -1.63,1.141c-1.237,-0 -1.657,-0.248 -1.657,-1.141l-0,-1.105c-0,-0.904 0.42,-1.146 1.657,-1.146c1.238,0 1.63,0.242 1.63,1.146l-0,1.105Zm-1.63,-2.637c-1.502,0 -2.101,0.335 -2.101,1.532l0,1.105c0,1.198 0.599,1.532 2.101,1.532c1.498,0 2.079,-0.334 2.079,-1.532l-0,-1.105c-0,-1.197 -0.581,-1.532 -2.079,-1.532Z" style="fill:#fff;fill-rule:nonzero;"/><path d="M45.607,26.092l-0.052,0l-2.948,-3.644l-0.656,-0l-0,4.03l0.42,0l-0,-3.662l0.051,0l2.948,3.662l0.657,0l-0,-4.03l-0.42,-0l-0,3.644Z" style="fill:#fff;fill-rule:nonzero;"/></g></g></svg>