<svg xmlns="http://www.w3.org/2000/svg" viewBox="0 0 106.79 42.24"><defs><style>.cls-1{fill:#fff;}</style></defs><title>Logo_Fama</title><g id="Calque_2" data-name="Calque 2"><g id="Calque_1-2" data-name="Calque 1"><polygon class="cls-1" points="46.3 0 57.12 0 63.67 19.21 69.98 0 80.75 0 80.75 21.86 77.46 27.12 73.4 33.95 73.4 9.43 67.1 27.99 59.95 27.99 53.65 9.43 53.65 33.7 46.3 35.59 46.3 0"/><path class="cls-1" d="M32.53,2.46l-7.9,2-.08,0c-.37,2.19-.7,4.38-1,6.56q-.64,4.47-1.14,8.91c-.24,2.16-.46,4.31-.65,6.47q-.72,7.92-1,15.79l7.55-1.94c0-2.57,0-5.19.14-7.83l14-3.59c1.35,2.27,2.7,4.53,3.94,6.78l7.32-2A272.74,272.74,0,0,0,32.53,2.46M28.76,26.08c.35-4.81.89-9.71,1.71-14.69,3.07,4,5.9,8,8.53,12.06Z"/><polygon class="cls-1" points="0.11 0 25.23 0 24.18 6.11 7.58 6.11 7.58 14.44 18.95 14.44 18.18 20.55 7.58 20.55 7.46 35.59 0 37.56 0.11 0"/><path class="cls-1" d="M102.49,4.42,94.57,2.48l-.08,0c-1.37,1.76-2.69,3.53-4,5.3q-2.68,3.64-5.21,7.31-1.84,2.68-3.63,5.4c-2.92,4.44-5.62,9-8.28,13.51l7.49,1.78c1.21-2.26,2.49-4.55,3.82-6.83l14,3.44c.13,2.63.25,5.27.28,7.83l7.81,1.92a276.92,276.92,0,0,0-4.3-37.7M88,23.46c2.58-4.07,5.37-8.14,8.44-12.14.83,5,1.42,9.85,1.83,14.66Z"/></g></g></svg>